<svg version="1.1" xmlns="http://www.w3.org/2000/svg" xmlns:xlink="http://www.w3.org/1999/xlink" x="0px" y="0px"
	 viewBox="-47 170.9 500 500" style="enable-background:new -47 170.9 500 500;" xml:space="preserve">
<style type="text/css">
	.st0{fill:#FFC83B;}
	.st1{fill:#FFFFFF;}
</style>
<g id="background">
	<path id="background_1_" class="st0" d="M453.1,238.5c0-37.3-30.2-67.6-67.6-67.6H20.6c-37.3,0-67.7,30.2-67.7,67.6v364.8
		c0,37.3,30.2,67.6,67.6,67.6h364.8c37.3,0,67.6-30.2,67.6-67.6V238.5H453.1z"/>
</g>
<g id="guides">
</g>
<g id="icon-mask">
	<path id="developer_1_" class="st1" d="M452.3,264.4c-0.6-5.5-7.3-7.8-11.2-3.9l-49.9,49.9c-9.9,9.9-25.9,9.9-35.8,0l-42.1-42.1
		c-9.9-9.9-9.9-25.9,0-35.8l49.8-49.8c3.9-3.9,1.5-10.6-4-11.2c-31.1-3.3-63.4,7.1-86.8,31c-23,23.6-32.7,55.3-29.1,85.8
		c2.5,21.5-6,42.9-22.4,57.1l-249,215.8c-25,25-25,65.8,0,90.8l0,0c25,25,65.8,25,90.8,0l214.7-249.2c14.2-16.4,35.6-25.1,57.1-22.4
		c31.2,4,63.9-6,87.8-30C445.7,326.9,455.7,295.1,452.3,264.4z M41,627.6C28.6,640,8.5,640-3.9,627.6s-12.4-32.5,0-44.9
		c12.4-12.4,32.5-12.4,44.9,0C53.4,595.1,53.4,615.2,41,627.6z"/>

</g>
</svg>
