<svg version="1.1" xmlns="http://www.w3.org/2000/svg" xmlns:xlink="http://www.w3.org/1999/xlink" x="0px" y="0px" viewBox="-47 170.9 500 500" style="enable-background:new -47 170.9 500 500;" xml:space="preserve">

	<g id="icon" fill="#FFFFFF">
		
		<path id="craft" d="M359.4,260.6c2.9,2.2,5.7,4.5,8.4,6.9l43.9-34.4l1.4-1.8 c-6.7-6.8-13.9-13.2-21.8-19.1c-100.7-76-252.9-44.2-339.8,71.1c-87,115.2-75.9,270.3,24.8,346.3c82.2,62.1,198.7,52.2,286.1-16.2 l-0.1-0.2l-41.8-32.8c-64.7,41.6-145,44.6-203.1,0.8c-77.4-58.4-85.9-177.5-19.1-266C165.2,226.7,282.1,202.2,359.4,260.6"/>
	
	</g>
	
</svg>
