<svg version="1.1" xmlns="http://www.w3.org/2000/svg" xmlns:xlink="http://www.w3.org/1999/xlink" x="0px" y="0px" viewBox="-47 170.9 500 500" style="enable-background:new -47 170.9 500 500;" xml:space="preserve">

	<path id="background" fill="#FFC83B" d="M453.1,238.5c0-37.3-30.2-67.6-67.6-67.6H20.6c-37.3,0-67.7,30.2-67.7,67.6v364.8 c0,37.3,30.2,67.6,67.6,67.6h364.8c37.3,0,67.6-30.2,67.6-67.6V238.5H453.1z"/>

	<g id="icon" fill="#FFFFFF">
		
		<g id="craft">
			<path d="M132.8,353.2c0.9,0.7,1.7,1.4,2.5,2.1l13.1-10.3l0.4-0.5 c-2-2-4.2-4-6.5-5.7c-30.2-22.8-75.7-13.2-101.8,21.3c-26.1,34.5-22.7,81,7.4,103.7c24.6,18.6,59.5,15.6,85.7-4.9l0-0.1l-12.5-9.8 c-19.4,12.5-43.4,13.4-60.8,0.2c-23.2-17.5-25.7-53.2-5.7-79.7C74.6,343,109.6,335.7,132.8,353.2"/>
			<path d="M351.5,406.7h28.2l3.3-17.3h-28.2l4.8-25.3h-0.1L338.1,381l-1.6,8.5 h-22.2l6.5-34c1.5-12.8,21.1-9,24-8.2l3.1-16.4c-35.2-13.5-45.4,24.6-45.4,24.6l-6.5,34h-0.1l-22,17.3h18.8L272,515.4h18.3 L311,406.7h22.2l-8.1,42.6c-5.2,31,25.9,27.6,35.8,25.6l3.1-16.2c-23.7,5.3-20.6-9.4-20.6-9.4L351.5,406.7z"/>
			<path d="M243.2,451.4c-19.1,19.6-31.3,6.7-31.3,6.7c-8.3-8,0.9-16.3,0.9-16.3 c12.6-11.5,31.9,1.1,31.9,1.1L243.2,451.4z M247.4,427.8c0,0-26.2-13.5-44.6,1.5c0,0-10.8,7.2-10.8,21.5 c0,14.3,13.1,22.1,13.1,22.1s19.8,10.4,35.3-6.2l-1.7,7.8H256l10.9-51.6c8.2-50.9-52.5-32.9-52.5-32.9l-3.3,18.3 c44.7-19.5,37.2,14.5,37.2,14.5L247.4,427.8z"/>
			<path d="M198.9,389.5c-14.1,0.1-27,8-27,8l1.6-7.7h-17l-15.5,84.7h17.3 l10.5-55.7c7.7-15.7,26.9-10.9,26.9-10.9L198.9,389.5z"/>
		</g>		
	</g>
	
</svg>