<svg version="1.1" xmlns="http://www.w3.org/2000/svg" xmlns:xlink="http://www.w3.org/1999/xlink" x="0px" y="0px" viewBox="-47 170.9 500 500" style="enable-background:new -47 170.9 500 500;" xml:space="preserve">
	<style type="text/css">
		.st0{fill:#FFC83B;}
		.st1{fill:#FFFFFF;}
	</style>
	<g id="background">
		<path id="background_1_" class="st0" d="M453.1,238.5c0-37.3-30.2-67.6-67.6-67.6H20.6c-37.3,0-67.7,30.2-67.7,67.6v364.8 c0,37.3,30.2,67.6,67.6,67.6h364.8c37.3,0,67.6-30.2,67.6-67.6V238.5H453.1z"/>
	</g>
	<g id="icon">
		<path id="developer" class="st1" d="M382.5,308.2c-0.4-3.9-5.2-5.6-8-2.8l-35.9,35.9c-7.1,7.1-18.7,7.1-25.8,0L282.4,311c-7.1-7.1-7.1-18.7,0-25.8l35.8-35.8c2.8-2.8,1.1-7.6-2.9-8.1c-22.4-2.4-45.7,5.1-62.5,22.3c-16.6,17-23.6,39.8-21,61.8c1.8,15.5-4.3,30.9-16.1,41.1L36.5,521.8c-18,18-18,47.4,0,65.4l0,0c18,18,47.4,18,65.4,0l154.6-179.4c10.2-11.8,25.6-18.1,41.1-16.1c22.5,2.9,46-4.3,63.2-21.6C377.7,353.2,384.9,330.3,382.5,308.2z M86.4,569.7c-8.9,8.9-23.4,8.9-32.3,0c-8.9-8.9-8.9-23.4,0-32.3c8.9-8.9,23.4-8.9,32.3,0C95.3,546.3,95.3,560.8,86.4,569.7z"/>
	</g>
</svg>
